<?xml version="1.0" standalone="no"?>
<!DOCTYPE svg PUBLIC "-//W3C//DTD SVG 20010904//EN"
 "http://www.w3.org/TR/2001/REC-SVG-20010904/DTD/svg10.dtd">
<svg version="1.0" xmlns="http://www.w3.org/2000/svg"
 width="834.000000pt" height="834.000000pt" viewBox="0 0 834.000000 834.000000"
 preserveAspectRatio="xMidYMid meet">
<metadata>
Created by potrace 1.14, written by Peter Selinger 2001-2017
</metadata>
<g transform="translate(0.000000,834.000000) scale(0.100000,-0.100000)"
fill="#000000" stroke="none">
<path d="M0 4170 l0 -4170 4170 0 4170 0 0 4170 0 4170 -4170 0 -4170 0 0
-4170z m4129 2788 c-101 -73 -222 -193 -272 -267 -20 -30 -34 -57 -32 -59 2
-3 27 16 55 42 99 88 252 178 360 210 69 21 266 35 256 18 -4 -7 -13 -12 -19
-12 -23 0 -232 -109 -267 -139 -34 -29 -26 -27 192 45 329 107 362 108 648 18
165 -52 295 -108 285 -124 -3 -5 -37 -10 -75 -10 -161 0 -427 -54 -469 -95
-12 -11 16 -13 175 -8 219 6 338 -6 603 -63 302 -65 380 -106 561 -291 127
-130 128 -131 453 -327 256 -155 275 -173 352 -326 95 -189 243 -540 227 -540
-4 0 -68 57 -142 125 -208 193 -277 221 -518 209 -73 -4 -131 -9 -129 -11 2
-1 61 -14 131 -28 210 -42 249 -63 414 -219 144 -137 298 -340 377 -496 65
-129 58 -137 -51 -54 -147 110 -235 133 -423 108 -64 -9 -167 -16 -228 -17
-62 -1 -113 -5 -113 -8 0 -15 136 -60 256 -84 71 -14 154 -38 184 -52 158 -76
260 -279 291 -581 18 -173 -1 -495 -25 -432 -3 8 -24 67 -47 130 -54 150 -120
291 -159 340 -20 26 -57 52 -103 75 -71 34 -181 64 -194 52 -3 -4 7 -17 23
-29 157 -119 264 -368 281 -648 5 -96 -20 -371 -53 -565 -16 -93 -59 -273 -67
-282 -3 -2 -26 35 -52 84 -136 255 -217 360 -395 517 -128 113 -165 138 -255
172 -70 26 -244 68 -252 61 -2 -2 29 -20 69 -39 244 -118 373 -317 452 -695
39 -190 49 -309 43 -524 -6 -205 -23 -323 -44 -298 -6 8 -35 66 -65 129 -30
63 -76 148 -102 187 -84 127 -279 289 -457 379 -88 44 -590 245 -602 241 -6
-2 38 -45 97 -97 216 -189 434 -480 505 -673 25 -69 26 -81 29 -316 2 -145 -1
-248 -6 -253 -11 -11 -43 29 -96 118 -67 116 -150 166 -317 189 -57 8 -164 21
-238 30 -274 33 -387 84 -628 282 l-112 92 14 -45 c28 -95 167 -286 320 -441
106 -107 162 -142 280 -173 28 -7 54 -16 58 -20 11 -10 -83 -45 -158 -59 -94
-18 -182 -13 -376 20 -378 63 -515 113 -630 228 -86 86 -129 166 -190 353 -27
84 -54 157 -59 162 -14 14 -13 -370 1 -436 19 -91 65 -162 187 -289 l114 -119
-90 0 c-195 0 -480 69 -681 166 -102 49 -123 63 -201 142 -143 144 -212 266
-260 460 -12 51 -26 95 -31 98 -5 3 -9 2 -9 -1 0 -3 -7 -41 -16 -83 -20 -97
-14 -207 15 -283 12 -31 46 -96 75 -145 30 -49 53 -91 51 -92 -2 -2 -45 18
-97 44 -226 117 -343 324 -355 629 -3 72 -1 163 4 202 12 95 2 109 -30 41 -29
-60 -44 -138 -53 -271 -7 -108 -12 -106 -86 39 -48 96 -53 113 -56 182 -2 43
3 114 11 159 10 60 11 85 3 91 -34 24 -160 76 -163 66 -15 -44 -82 -160 -94
-162 -10 -2 -23 22 -42 81 -43 133 -66 161 -175 213 -152 73 -186 113 -262
308 -33 85 -31 126 6 167 17 19 16 21 -19 57 -52 53 -76 115 -83 216 -6 67 -4
86 6 86 7 0 55 -27 106 -60 112 -73 128 -80 121 -54 -20 67 -47 181 -47 201 0
13 5 23 10 23 6 0 51 -20 100 -45 49 -25 96 -45 104 -45 8 0 39 38 69 85 45
69 56 96 62 143 7 59 -7 163 -27 207 -11 24 -100 93 -180 139 l-46 27 -16 -23
c-13 -18 -16 -50 -16 -155 0 -79 -4 -134 -10 -138 -28 -17 -133 82 -202 190
-39 61 -54 74 -112 105 -77 40 -68 45 -118 -65 -29 -64 -41 -76 -53 -48 -51
126 -67 194 -73 309 -6 99 -11 126 -26 143 -25 27 -33 139 -16 223 6 35 25 94
42 132 25 58 29 78 25 118 -7 58 4 91 35 112 13 8 73 25 133 37 61 11 128 28
150 37 70 27 153 86 185 130 35 49 68 66 164 83 75 14 75 14 155 140 61 96
114 147 219 211 84 52 139 103 167 158 15 30 15 30 -12 41 -34 13 -106 25
-196 34 -86 8 -80 17 56 84 161 78 256 89 363 42 53 -24 59 -22 50 12 -17 70
-110 141 -218 167 -27 7 -48 16 -48 21 0 5 19 18 42 30 36 18 52 20 112 15
100 -10 137 -21 196 -61 55 -37 70 -42 70 -24 0 6 27 67 61 136 50 105 71 137
129 196 38 39 72 69 74 66 3 -3 -10 -53 -29 -112 -19 -58 -35 -114 -35 -122 0
-10 37 17 93 67 163 148 270 216 407 261 152 50 178 45 85 -17 -37 -24 -64
-53 -85 -88 -38 -68 -38 -77 3 -44 96 79 239 157 330 180 34 8 32 3 -48 -108
-51 -71 -95 -146 -95 -161 0 -4 40 29 88 73 152 136 284 213 432 251 118 31
121 26 29 -41z"/>
<path d="M3126 6495 c-32 -29 -89 -72 -127 -96 -38 -24 -90 -57 -117 -74 -30
-19 -58 -49 -78 -82 -31 -51 -81 -189 -72 -198 2 -2 28 27 57 66 29 38 94 106
144 152 137 123 225 214 243 248 8 17 14 32 12 34 -2 2 -29 -21 -62 -50z"/>
<path d="M3231 6393 c-21 -43 -159 -179 -298 -297 -118 -100 -124 -118 -22
-71 52 23 84 32 249 70 102 24 158 54 216 118 48 53 119 157 107 157 -4 0 -37
-31 -74 -70 -72 -76 -173 -133 -258 -146 l-44 -7 40 54 c48 63 68 102 94 176
21 62 17 68 -10 16z"/>
<path d="M3860 6319 c-130 -31 -163 -47 -266 -127 -33 -26 -96 -72 -140 -102
-95 -65 -83 -74 45 -31 104 35 220 92 334 163 45 28 117 68 161 89 l80 39 -45
-1 c-24 0 -100 -14 -169 -30z"/>
<path d="M4239 6245 c-76 -15 -141 -46 -219 -105 -76 -57 -129 -81 -331 -149
-97 -33 -201 -71 -230 -85 l-54 -24 77 -1 c97 -1 286 31 372 63 79 30 133 61
223 128 83 62 185 110 278 131 193 43 182 40 155 48 -41 12 -200 8 -271 -6z"/>
<path d="M4352 6015 c-115 -30 -271 -103 -405 -191 -123 -80 -369 -268 -357
-272 5 -2 46 8 92 22 153 46 431 115 608 150 167 33 460 75 538 77 l37 1 -30
9 c-16 5 -90 14 -162 21 -152 14 -334 2 -487 -32 -50 -11 -92 -20 -94 -20 -16
0 33 38 102 79 137 83 219 111 420 146 127 22 109 35 -49 34 -94 0 -141 -5
-213 -24z"/>
<path d="M2513 5955 c-18 -7 -99 -39 -180 -70 -199 -76 -246 -100 -287 -146
-36 -39 -91 -137 -83 -146 12 -11 101 44 132 82 39 47 80 68 178 90 114 25
202 80 258 161 32 48 31 50 -18 29z"/>
<path d="M2960 5899 c-91 -27 -206 -69 -256 -94 -65 -32 -138 -55 -260 -85
-198 -48 -260 -74 -315 -131 -52 -54 -42 -67 41 -49 33 7 62 11 65 9 11 -12
-43 -73 -79 -89 -39 -16 -40 -17 -19 -28 34 -18 133 -42 176 -42 22 0 77 17
135 42 159 68 170 67 450 -45 107 -43 149 -64 142 -71 -7 -7 -69 -12 -155 -13
-129 -1 -148 -3 -174 -22 -58 -41 -114 -61 -178 -61 -35 0 -63 -4 -63 -9 0
-17 62 -31 134 -31 l71 0 -27 -27 c-22 -21 -39 -28 -87 -31 -84 -6 -142 16
-234 91 -85 70 -151 107 -188 107 -22 0 -21 -2 11 -21 72 -43 164 -152 286
-339 64 -97 77 -99 153 -27 77 74 128 99 193 95 30 -2 53 -8 56 -15 2 -7 -3
-13 -10 -13 -37 0 -107 -63 -162 -146 -110 -165 -183 -152 -321 55 -56 84
-125 166 -125 149 0 -29 67 -296 86 -343 l25 -60 -64 63 c-69 69 -81 88 -152
259 -80 193 -136 227 -430 262 l-70 8 40 19 c31 15 62 19 140 18 86 0 112 -4
187 -31 48 -17 90 -28 93 -24 9 16 -52 61 -109 81 -81 27 -210 51 -298 53 -73
2 -73 2 -153 -51 -83 -54 -198 -104 -285 -123 -27 -6 -50 -15 -50 -19 0 -27
140 -80 210 -80 53 0 70 -8 70 -35 0 -62 25 -65 139 -13 36 15 68 25 73 20 4
-4 -11 -36 -33 -70 -47 -72 -96 -104 -184 -122 -132 -27 -199 -67 -225 -134
-10 -27 -8 -33 22 -64 37 -39 242 -143 321 -163 58 -14 132 -7 189 19 96 43
184 136 204 216 7 28 6 28 -61 -23 -37 -28 -84 -60 -104 -70 -52 -27 -146 -53
-178 -49 -24 3 -15 11 81 77 149 103 206 158 206 199 0 18 -3 32 -6 32 -4 0
-21 -13 -39 -29 -38 -33 -117 -66 -140 -58 -11 5 -5 17 31 53 45 47 84 110 84
138 0 8 -18 20 -42 28 l-43 15 49 16 c129 44 211 -4 256 -151 23 -74 25 -123
7 -209 l-13 -61 70 1 c90 2 121 -13 224 -107 43 -39 87 -77 98 -84 35 -23 -44
-2 -136 36 -67 27 -103 36 -170 39 -88 5 -151 -5 -157 -24 -2 -6 52 -57 121
-112 82 -66 134 -116 149 -144 213 -375 218 -387 198 -524 -13 -96 -37 -177
-93 -320 -50 -129 -102 -192 -185 -223 -111 -41 -342 -47 -535 -14 -52 9 -50
-6 15 -90 39 -52 71 -80 129 -115 88 -53 109 -77 138 -155 12 -31 26 -56 31
-56 5 0 9 28 9 63 0 45 -7 77 -25 115 -14 30 -25 56 -25 58 0 16 33 -8 113
-82 88 -83 169 -136 184 -121 3 4 -8 22 -26 41 -36 37 -85 146 -71 160 4 4 39
-15 76 -44 71 -54 125 -82 182 -93 40 -8 40 1 1 39 -33 30 -79 116 -79 147 0
22 15 21 70 -4 48 -23 193 -38 203 -22 3 5 -7 35 -23 66 -38 76 -56 185 -41
252 24 104 128 241 235 310 30 19 63 47 75 63 12 17 36 99 61 213 76 333 107
407 231 543 86 95 111 147 117 242 6 89 -8 171 -55 319 -19 64 -33 119 -29
122 9 9 72 -54 107 -108 40 -62 64 -136 83 -256 24 -152 82 -300 199 -506 111
-196 221 -280 411 -312 143 -24 152 -21 66 26 -100 54 -199 131 -288 222 -66
68 -123 160 -108 174 3 3 35 -9 72 -27 37 -18 94 -36 132 -42 136 -20 171 -30
237 -69 87 -53 120 -66 193 -78 72 -12 207 0 362 30 94 19 150 39 110 39 -8 0
-60 5 -115 10 -138 14 -182 37 -286 151 -48 53 -113 111 -158 140 l-76 51 105
-6 c175 -10 253 -36 403 -133 l68 -44 -18 32 c-30 52 -123 148 -166 173 -58
34 -97 42 -292 66 -285 33 -350 48 -455 100 -58 29 -132 97 -156 142 -7 14
-25 70 -39 123 -34 130 -74 196 -168 272 -42 35 -35 47 26 39 138 -18 183 -49
262 -178 88 -143 128 -192 196 -237 72 -48 124 -65 274 -86 139 -20 207 -39
319 -86 50 -21 91 -37 93 -35 7 6 -81 77 -132 107 -72 41 -186 77 -290 89
-162 20 -243 75 -352 243 -123 188 -129 192 -387 227 -163 22 -186 27 -186 39
0 4 31 25 69 46 68 37 210 143 211 157 0 4 -10 10 -22 13 -45 10 -260 35 -304
35 -24 0 -44 4 -44 8 0 5 27 21 60 37 34 16 66 35 72 42 17 20 -97 17 -235 -8
-65 -12 -121 -18 -124 -15 -9 9 34 41 160 117 64 40 117 74 117 75 0 7 -15 3
-180 -47z m-370 -193 c0 -2 -13 -30 -30 -61 -16 -31 -30 -63 -30 -70 0 -32
-123 -102 -166 -93 -32 6 -48 54 -35 99 12 39 35 59 68 59 11 0 50 16 89 35
60 31 104 44 104 31z m794 -517 c41 -54 62 -110 86 -229 26 -131 139 -224 390
-321 96 -37 165 -93 211 -174 16 -27 29 -53 29 -57 0 -11 -73 17 -117 45 -62
39 -169 82 -309 122 -154 45 -191 62 -233 111 -40 45 -47 62 -66 172 -8 49
-31 158 -50 243 -19 85 -35 163 -35 173 0 18 2 18 26 -5 15 -13 45 -49 68 -80z
m-310 -227 c24 -47 39 -149 33 -224 -8 -93 -37 -149 -138 -268 -218 -256 -251
-307 -282 -430 -8 -29 -19 -56 -24 -57 -5 -2 -15 28 -21 66 -30 182 -10 228
190 437 181 189 201 227 206 392 2 61 8 112 13 112 5 0 15 -12 23 -28z"/>
<path d="M4875 5644 c-22 -2 -68 -7 -102 -10 -35 -3 -63 -9 -63 -13 0 -13 87
-49 149 -62 39 -7 96 -10 150 -6 101 7 246 -7 299 -29 l36 -15 -24 27 c-35 37
-101 73 -162 90 -55 14 -215 25 -283 18z"/>
<path d="M4253 5500 c-88 -23 -255 -99 -250 -114 5 -16 135 -58 197 -63 53 -5
83 3 298 72 30 10 7 -25 -56 -85 -71 -68 -183 -133 -253 -145 -31 -6 -116 9
-234 41 -17 4 -16 2 5 -16 51 -43 128 -72 209 -77 70 -5 84 -3 132 20 30 15
62 32 71 39 52 37 15 -77 -39 -121 -41 -34 -38 -45 21 -72 52 -24 80 -23 134
1 105 48 194 173 212 298 13 93 -10 199 -49 229 -27 21 -311 16 -398 -7z"/>
<path d="M1705 5467 c-16 -12 -9 -15 58 -21 42 -4 98 -13 124 -21 26 -8 70
-15 97 -15 l49 0 -26 20 c-14 11 -45 27 -68 35 -54 19 -208 20 -234 2z"/>
<path d="M2515 5355 l-60 -23 44 -12 c53 -14 100 -7 136 22 54 42 -23 51 -120
13z"/>
<path d="M1096 4947 c-39 -96 -41 -228 -3 -235 28 -6 65 24 72 58 8 36 -19
168 -39 196 -13 17 -15 16 -30 -19z"/>
<path d="M4906 4573 c121 -191 241 -321 339 -369 59 -28 63 -29 190 -25 72 2
211 5 310 5 160 1 188 -1 251 -21 123 -39 215 -126 362 -341 31 -46 58 -78 60
-73 8 23 -50 199 -97 298 -75 156 -149 222 -286 256 -106 27 -186 29 -341 12
-84 -10 -193 -15 -253 -13 -94 3 -114 7 -174 35 -92 44 -227 138 -317 223 -41
38 -76 70 -78 70 -1 0 14 -26 34 -57z"/>
<path d="M1207 4528 c9 -48 21 -67 56 -88 80 -49 86 7 9 77 -58 52 -74 55 -65
11z"/>
<path d="M1400 4487 c0 -9 7 -49 15 -89 18 -83 51 -157 94 -208 l29 -35 -1
100 c-1 55 2 118 6 141 l8 41 -63 27 c-35 16 -69 30 -75 33 -7 3 -13 -2 -13
-10z"/>
<path d="M3211 4410 c-35 -47 -72 -103 -82 -125 -16 -37 -60 -275 -59 -321 1
-37 76 62 116 154 22 48 44 87 49 87 16 0 8 -211 -11 -274 -32 -111 -73 -166
-240 -321 -112 -105 -137 -150 -142 -262 -4 -77 -1 -101 23 -174 15 -46 31
-86 35 -89 4 -2 10 38 14 90 11 162 20 179 182 345 78 80 151 164 162 187 12
23 29 90 38 150 9 59 20 112 25 117 11 12 32 -14 124 -150 98 -146 146 -180
293 -204 125 -21 412 -17 390 5 -3 3 -72 18 -154 34 -165 32 -254 64 -345 123
-196 126 -327 363 -348 627 l-6 86 -64 -85z"/>
<path d="M2065 4116 c-48 -21 -58 -41 -66 -134 -6 -77 -12 -97 -54 -174 -25
-48 -44 -92 -41 -97 6 -10 107 -34 188 -46 52 -7 49 -11 63 77 6 41 39 73 85
83 39 9 44 32 31 131 -15 101 -29 154 -42 154 -6 0 -44 -31 -83 -70 -40 -38
-76 -70 -81 -70 -4 0 -5 21 -2 46 3 34 13 54 38 80 28 29 30 34 13 34 -10 -1
-33 -7 -49 -14z"/>
<path d="M5027 4021 c85 -70 193 -191 236 -263 49 -82 82 -188 103 -332 11
-70 21 -113 27 -107 15 15 25 191 16 292 -21 244 -114 364 -338 438 -101 33
-110 28 -44 -28z"/>
<path d="M2251 3741 c-18 -18 -21 -33 -21 -107 0 -101 10 -105 53 -24 49 94
25 188 -32 131z"/>
<path d="M1645 3718 c4 -13 28 -61 55 -108 63 -112 102 -141 198 -148 39 -2
82 -2 96 2 37 9 66 45 66 82 0 35 -7 39 -115 69 -33 9 -113 41 -178 71 -65 30
-120 54 -123 54 -3 0 -2 -10 1 -22z"/>
<path d="M3357 3631 c-8 -117 -34 -167 -159 -297 -114 -120 -128 -148 -128
-250 0 -79 44 -202 103 -290 43 -65 178 -226 185 -220 1 2 -29 68 -68 147 -83
173 -105 247 -97 342 7 79 36 149 100 239 56 79 81 128 102 201 16 54 16 63 0
133 -9 41 -20 74 -24 74 -5 0 -11 -36 -14 -79z"/>
<path d="M2140 3364 c-90 -39 -191 -54 -375 -54 -186 -1 -198 -5 -90 -34 95
-26 238 -31 318 -12 95 22 207 81 207 108 0 12 -20 9 -60 -8z"/>
<path d="M4056 3265 c-10 -59 9 -157 43 -232 60 -128 184 -215 386 -273 61
-18 137 -46 170 -63 81 -43 190 -154 245 -249 25 -43 48 -78 52 -78 17 0 -24
196 -55 270 -24 55 -73 117 -116 145 -21 14 -111 50 -199 80 -88 30 -187 67
-219 83 -130 66 -224 160 -264 262 -11 30 -24 64 -29 75 -6 16 -9 12 -14 -20z"/>
<path d="M2719 3215 c-29 -66 -47 -161 -61 -321 -10 -120 -9 -155 4 -235 14
-86 52 -199 67 -199 3 0 6 90 6 199 0 110 3 203 8 207 4 4 15 -3 24 -17 8 -13
50 -58 92 -99 56 -55 97 -85 154 -113 44 -21 81 -36 84 -33 3 3 -26 39 -64 80
-39 42 -111 129 -161 196 -109 143 -139 219 -128 321 4 32 4 59 1 59 -3 0 -15
-20 -26 -45z"/>
</g>
</svg>
